<svg id="Capa_1"  enable-background="new 0 0 512 512" height="512" viewBox="0 0 512 512" width="512" xmlns="http://www.w3.org/2000/svg">
    <g color="#2196F3">
        <g>
            <path stroke="#fff" stroke-width="8" fill="currentcolor" d="m436 195h-360c-8.284 0-15-6.716-15-15v-30c0-8.284 6.716-15 15-15h360c8.284 0 15 6.716 15 15v30c0 8.284-6.716 15-15 15z"/>
        </g>
        <path stroke="#fff" stroke-width="8" fill="currentcolor" d="m93.906 225 27.167 273.483c.763 7.672 7.217 13.517 14.927 13.517h240c7.71 0 14.164-5.845 14.927-13.517l27.167-273.483zm132.865 181h-48.714c-11.508 0-18.77-12.49-12.99-22.5l24.357-42.188c4.142-7.174 13.316-9.633 20.49-5.49 7.175 4.142 9.633 13.316 5.49 20.49l-11.365 19.688h22.732c8.284 0 15 6.716 15 15s-6.715 15-15 15zm40.596-100.312-11.367-19.688-11.367 19.688c-4.144 7.174-13.317 9.632-20.49 5.49-7.175-4.142-9.633-13.316-5.49-20.49l24.357-42.188c2.68-4.641 7.631-7.5 12.99-7.5s10.311 2.859 12.99 7.5l24.357 42.188c4.143 7.174 1.685 16.348-5.49 20.49-2.362 1.364-4.941 2.012-7.486 2.012-5.183 0-10.225-2.69-13.004-7.502zm66.575 100.312h-48.714c-8.284 0-15-6.716-15-15s6.716-15 15-15h22.732l-11.366-19.687c-4.143-7.175-1.685-16.348 5.49-20.49 7.172-4.142 16.348-1.685 20.49 5.49l24.357 42.188c5.757 9.967-1.432 22.499-12.989 22.499z"/>
        <path stroke="#fff" stroke-width="8" fill="currentcolor" d="m181 105v-30.004c0-8.284 6.716-15 15-15h120c8.284 0 15 6.716 15 15v30.004h82.961l-23.409-93.638c-1.669-6.677-7.669-11.362-14.552-11.362h-240c-6.883 0-12.883 4.685-14.552 11.362l-23.409 93.638z"/>
    </g>
</svg>